<?xml version="1.0" standalone="no"?>
<!DOCTYPE svg PUBLIC "-//W3C//DTD SVG 20010904//EN"
 "http://www.w3.org/TR/2001/REC-SVG-20010904/DTD/svg10.dtd">
<svg version="1.0" xmlns="http://www.w3.org/2000/svg"
 width="300.000000pt" height="300.000000pt" viewBox="0 0 300.000000 300.000000"
 preserveAspectRatio="xMidYMid meet">
<metadata>
Created by potrace 1.10, written by Peter Selinger 2001-2011
</metadata>
<g transform="translate(0.000000,300.000000) scale(0.100000,-0.100000)"
fill="#000000" stroke="none">
<path d="M2302 2817 c-5 -7 -14 -28 -21 -47 -22 -60 -34 -83 -75 -140 -39 -55
-152 -170 -168 -170 -4 0 -7 -6 -6 -12 2 -8 -5 -12 -16 -10 -11 2 -15 -1 -11
-8 4 -6 -1 -18 -11 -25 -23 -18 -38 -19 -28 -3 4 7 7 32 5 57 -2 40 -1 44 13
31 39 -32 116 61 116 140 0 71 -39 122 -61 79 -26 -50 -42 -98 -44 -129 -4
-66 -5 -70 -16 -70 -7 0 -9 12 -5 33 7 37 -8 90 -34 124 -22 28 -30 19 -55
-56 -21 -63 -43 -105 -100 -181 l-40 -55 -5 35 c-8 54 -21 68 -70 75 -25 3
-61 10 -81 14 -37 8 -231 7 -284 -2 -16 -2 -61 -12 -100 -22 -38 -10 -76 -18
-82 -18 -7 0 -13 -3 -13 -7 0 -3 -17 -12 -37 -19 -55 -19 -163 -74 -163 -83 0
-5 -4 -8 -10 -8 -14 0 -95 -63 -153 -119 -146 -140 -259 -335 -298 -516 -7
-33 -13 -62 -14 -65 -1 -5 -9 -91 -20 -212 -2 -26 -1 -49 3 -52 5 -3 9 -24 10
-47 5 -79 46 -212 99 -321 49 -102 147 -249 193 -288 10 -8 43 -37 75 -65 63
-54 83 -68 185 -132 53 -32 185 -78 280 -97 76 -14 210 -23 199 -12 -2 3 -51
10 -108 16 -57 6 -141 23 -185 37 -457 143 -768 618 -716 1093 26 240 114 430
279 603 99 103 175 160 296 218 153 75 237 93 430 94 179 0 265 -14 265 -45 0
-33 -30 -103 -63 -146 -35 -48 -45 -52 -54 -26 -3 9 -15 29 -25 44 -10 14 -15
33 -12 42 11 29 -23 66 -60 66 -64 0 -90 -70 -40 -109 l25 -20 -22 -50 c-22
-52 -87 -121 -114 -121 -24 0 -20 85 5 110 11 11 20 29 20 40 0 24 -34 60 -55
60 -22 0 -66 -46 -60 -63 4 -8 -5 -18 -21 -26 -23 -10 -33 -9 -60 5 -30 17
-34 17 -58 1 -16 -11 -26 -27 -26 -42 0 -31 -53 -63 -75 -45 -21 18 -58 8 -72
-20 -10 -20 -10 -29 3 -48 14 -21 13 -26 -6 -57 -11 -18 -44 -47 -73 -63 -59
-33 -97 -68 -137 -128 -16 -22 -45 -53 -64 -68 -53 -40 -101 -140 -57 -116 26
13 132 13 168 -1 40 -15 82 -57 104 -104 14 -29 19 -64 19 -131 0 -222 65
-387 195 -499 30 -25 55 -42 55 -36 0 5 -7 17 -16 25 -8 9 -12 16 -9 16 4 0
-19 28 -50 62 -98 106 -132 225 -92 321 16 36 123 154 133 145 2 -3 -10 -35
-27 -72 -30 -63 -31 -73 -28 -164 1 -53 3 -111 3 -129 1 -17 5 -29 9 -26 5 3
7 -1 6 -8 -4 -17 34 -91 55 -108 17 -14 22 -2 7 15 -8 8 -61 137 -61 147 0 3
26 -20 57 -52 65 -65 102 -81 110 -50 4 14 9 17 18 9 7 -6 17 -9 23 -8 5 2 19
-8 30 -22 21 -24 22 -25 51 -8 31 17 31 17 31 -5 0 -13 5 -28 12 -35 7 -7 8
-12 3 -12 -6 0 -3 -5 5 -11 12 -8 9 -9 -10 -4 -36 9 -70 27 -70 37 0 5 -4 6
-10 3 -5 -3 -23 1 -40 10 -16 8 -30 11 -30 5 0 -5 21 -20 48 -34 49 -25 235
-86 262 -86 8 0 42 -13 75 -29 83 -39 158 -114 198 -198 29 -62 32 -77 32
-163 0 -84 -3 -101 -28 -147 -28 -54 -81 -114 -118 -134 -20 -10 -20 -8 4 22
72 95 91 240 45 341 -44 96 -122 164 -278 243 -88 44 -161 96 -153 108 3 7 3
9 -2 5 -4 -4 -27 7 -49 26 -23 18 -51 36 -63 40 -13 4 -23 11 -23 16 0 5 -9
14 -21 20 -18 10 -19 9 -11 -7 21 -38 154 -152 252 -216 114 -74 150 -188 95
-304 -13 -29 -25 -53 -27 -53 -2 0 -3 37 -3 83 0 127 -24 169 -190 332 -74 73
-135 127 -135 120 0 -7 22 -36 50 -65 27 -29 50 -58 50 -64 0 -8 -2 -8 -8 0
-18 26 -83 37 -257 42 -164 4 -181 6 -193 24 -16 23 -60 21 -75 -3 -18 -28 0
-69 33 -76 16 -3 35 -12 41 -19 9 -11 6 -14 -21 -14 -37 0 -90 47 -90 80 0 12
13 35 29 51 29 28 31 29 138 29 106 0 109 -1 146 -31 20 -17 37 -26 37 -20 0
6 -9 16 -20 23 -11 7 -20 16 -20 20 0 5 9 8 20 8 11 0 20 5 20 10 0 6 -59 10
-156 10 l-156 0 -30 -30 c-28 -28 -30 -36 -25 -78 9 -81 91 -125 159 -85 30
18 37 38 13 38 -5 0 -16 4 -23 8 -26 17 -9 27 47 27 56 0 64 -3 137 -55 71
-51 118 -74 130 -63 2 3 -19 17 -48 32 -29 15 -69 40 -88 56 l-35 29 108 1
c96 0 113 -3 159 -26 48 -24 158 -118 158 -134 0 -5 -17 -4 -37 1 -52 12 -53
12 -53 -11 0 -17 5 -18 49 -13 l50 6 16 -39 c10 -22 20 -70 23 -108 3 -48 10
-74 23 -87 24 -24 27 -24 55 8 l22 26 16 -37 c22 -53 42 -69 94 -73 39 -4 52
0 77 21 17 14 35 30 41 35 35 29 -23 -158 -63 -201 -19 -21 -12 -43 16 -51 12
-3 19 -2 17 2 -3 4 15 23 39 42 24 19 53 54 66 81 18 40 24 45 39 36 28 -18
45 -4 76 59 l29 59 25 -26 c14 -14 23 -24 21 -23 -8 5 -41 -41 -41 -57 0 -12
-7 -16 -28 -12 -22 3 -31 -2 -42 -23 -24 -44 18 -88 64 -67 20 9 26 19 27 44
0 18 3 28 5 22 7 -18 53 -4 60 19 6 18 7 18 16 4 5 -10 20 -17 33 -17 21 0 25
5 25 30 0 25 -4 30 -24 30 -14 0 -28 -5 -31 -10 -5 -8 -11 -7 -21 1 -25 21
-15 29 30 25 31 -3 48 0 57 10 6 8 17 14 23 14 39 1 71 123 45 172 -8 14 -77
85 -153 159 -138 131 -140 133 -141 177 0 34 -6 49 -26 66 -24 20 -24 24 -11
44 18 27 82 32 82 6 0 -9 9 -18 20 -21 28 -8 25 -23 -5 -23 -14 0 -28 -7 -32
-15 -7 -21 25 -44 51 -37 20 5 19 5 -1 -17 -36 -38 -5 -71 32 -35 9 9 19 13
23 10 3 -4 1 -11 -6 -15 -7 -4 -10 -15 -6 -24 4 -11 1 -17 -7 -17 -23 0 13
-20 37 -20 40 0 123 -31 154 -57 45 -38 70 -93 70 -155 l-1 -53 -14 32 c-8 20
-32 44 -59 60 -25 15 -50 39 -56 53 -17 39 -79 101 -111 110 -32 10 -41 -5 -9
-15 11 -4 18 -11 14 -16 -3 -5 -2 -8 3 -7 11 3 56 -22 50 -28 -8 -9 101 -134
117 -134 6 0 23 -14 37 -31 28 -35 49 -32 49 6 0 28 20 45 21 18 0 -10 3 -13
6 -5 2 6 13 12 23 12 11 0 24 10 31 21 9 17 7 26 -9 49 l-21 27 25 13 c19 11
24 21 24 52 0 33 -5 42 -30 56 -27 16 -35 41 -17 58 4 4 -1 16 -10 27 -18 19
-17 19 14 13 26 -6 32 -4 38 14 5 16 -1 28 -27 50 -18 16 -38 30 -45 30 -21 0
-25 -20 -9 -45 15 -22 15 -25 1 -25 -27 0 -30 -1 -52 -22 -15 -14 -21 -29 -19
-45 3 -16 0 -23 -11 -23 -23 0 -44 -32 -31 -47 14 -17 -1 -16 -32 2 -14 8 -42
14 -64 15 -31 0 -37 3 -32 16 3 9 6 20 6 25 0 5 7 9 15 9 8 0 15 -4 15 -10 0
-5 -5 -10 -11 -10 -5 0 -7 -5 -3 -11 5 -8 9 -8 14 1 5 9 9 9 14 1 4 -6 14 -11
23 -11 12 0 14 8 11 35 -2 19 -3 35 -1 35 1 0 14 -5 28 -12 36 -16 56 3 32 30
-16 18 -16 19 9 30 34 16 28 45 -11 52 -28 6 -29 7 -7 14 16 5 22 15 22 36 0
16 7 33 16 38 13 7 14 13 5 31 -13 23 -43 28 -58 8 -15 -18 -12 -47 4 -47 20
0 7 -17 -17 -23 -17 -4 -21 -1 -18 16 1 12 -1 28 -6 35 -4 7 -2 19 4 27 7 8
10 26 6 39 -4 16 -1 26 9 30 8 3 15 12 15 21 0 26 34 15 55 -18 27 -43 59 -47
79 -10 l15 28 -6 -32 c-7 -41 10 -63 49 -63 25 0 32 6 46 41 12 31 17 37 24
25 13 -23 65 -20 78 3 5 11 10 38 10 60 0 23 6 50 12 61 20 31 -8 73 -52 81
-19 4 -28 7 -20 8 13 1 13 3 1 10 -8 5 -11 15 -9 23 4 9 -6 19 -26 29 l-31 14
65 6 65 6 -88 1 c-57 1 -86 -2 -82 -8 9 -15 -4 -30 -21 -23 -8 3 -13 12 -10
20 3 8 2 11 -3 8 -5 -3 -12 -1 -16 5 -3 5 -23 10 -44 10 -27 0 -44 -7 -61 -25
-19 -20 -30 -24 -54 -20 -44 8 -85 -31 -82 -78 1 -18 6 -38 10 -45 5 -8 2 -10
-8 -6 -9 3 -16 10 -16 15 0 4 -6 6 -14 3 -8 -3 -19 3 -25 15 -9 16 -8 21 10
26 15 5 19 14 17 33 -2 22 -9 28 -36 30 -27 3 -32 7 -27 20 15 36 17 51 6 64
-6 7 -23 28 -37 46 -21 26 -33 33 -51 29 -16 -3 -27 2 -33 13 -8 15 -2 18 58
23 37 4 78 9 92 13 14 3 36 8 50 11 13 4 31 12 38 20 7 7 19 13 25 13 7 0 31
18 55 40 24 22 47 40 52 40 6 0 10 7 10 15 0 8 4 15 9 15 5 0 12 12 16 27 4
19 2 29 -11 36 -13 8 -7 13 36 28 61 21 129 74 160 124 12 20 26 32 33 28 6
-4 8 0 4 10 -3 9 -2 19 3 22 15 9 12 41 -4 54 -10 9 -21 9 -42 -1 -16 -7 -31
-15 -34 -18 -11 -13 -92 -31 -113 -25 -15 4 -18 3 -9 -3 17 -11 -6 -22 -47
-22 -15 0 -32 -5 -39 -12 -7 -7 -12 -8 -12 -2 0 16 47 34 67 27 16 -6 16 -5 4
10 -7 9 -9 17 -4 17 5 0 29 19 53 42 51 50 93 134 116 234 17 71 17 74 -2 95
-10 12 -19 30 -19 41 0 31 -31 47 -51 26 -22 -22 -2 -62 27 -53 10 4 19 3 19
0 0 -11 -62 -88 -93 -115 -33 -29 -174 -110 -180 -104 -2 2 20 29 49 60 64 67
113 160 123 237 18 130 -27 295 -67 244z m43 -92 c20 -89 10 -179 -29 -259
-26 -53 -120 -166 -138 -166 -6 0 -5 7 3 18 13 15 12 16 -4 3 -9 -8 -15 -16
-12 -19 6 -7 -15 -32 -27 -32 -5 0 -6 5 -2 12 4 7 3 8 -5 4 -6 -4 -8 -12 -5
-18 5 -8 1 -9 -10 -5 -10 4 -15 3 -11 -3 3 -5 -58 -42 -137 -81 -78 -38 -151
-79 -161 -90 -10 -10 -32 -26 -50 -35 l-32 -17 20 24 c38 44 48 53 62 55 8 1
33 19 56 38 85 73 203 164 232 179 17 8 62 46 102 84 82 78 130 161 138 238
l5 50 -15 -54 c-38 -133 -121 -229 -302 -348 l-118 -78 36 72 c27 53 51 84 95
120 143 119 274 296 274 370 0 45 19 13 35 -62z m-273 -86 c3 -59 0 -69 -25
-102 -28 -38 -54 -50 -43 -21 3 9 9 34 12 57 4 23 13 51 20 62 8 11 14 35 14
54 0 63 19 19 22 -50z m-125 -154 c-5 -90 -29 -165 -80 -241 -45 -69 -177
-205 -191 -197 -6 3 -8 2 -3 -2 4 -5 -5 -21 -20 -37 -32 -33 -54 -38 -27 -5
10 12 -5 0 -34 -28 -29 -27 -52 -45 -52 -40 0 12 59 116 78 138 8 9 13 20 9
23 -11 11 -128 -142 -161 -211 -35 -72 -60 -161 -34 -120 7 11 26 52 43 90 24
56 35 70 52 70 12 0 33 11 47 24 40 38 31 14 -15 -37 -55 -63 -111 -165 -103
-188 5 -15 4 -16 -4 -5 -8 11 -14 2 -26 -40 -22 -81 -30 -145 -17 -153 13 -9
60 24 61 42 0 7 4 11 9 8 5 -4 12 0 14 6 3 8 6 8 6 2 1 -6 -9 -22 -22 -36 -13
-14 -23 -35 -22 -46 1 -15 -3 -20 -14 -18 -78 15 -89 19 -87 33 1 8 9 19 17
23 24 15 18 114 -9 143 -12 13 -19 27 -15 32 5 4 0 5 -9 2 -28 -10 -21 17 11
44 15 13 31 31 34 39 3 8 6 -22 6 -68 1 -99 15 -103 19 -5 3 71 21 155 47 217
27 65 84 144 215 302 182 218 227 289 246 389 l8 40 13 -55 c8 -32 12 -88 10
-135z m513 40 c0 -8 -7 -15 -15 -15 -8 0 -15 7 -15 15 0 8 7 15 15 15 8 0 15
-7 15 -15z m25 -72 c-2 -10 -9 -47 -15 -83 -32 -176 -139 -273 -390 -355 -177
-57 -224 -76 -270 -105 -49 -32 -150 -131 -150 -149 0 -5 -32 -30 -70 -56 -40
-26 -93 -74 -122 -110 -29 -35 -54 -62 -56 -60 -9 9 74 195 118 263 88 138
200 226 418 329 395 186 460 225 504 303 24 42 38 52 33 23z m-957 -75 c17
-17 15 -55 -4 -62 -27 -11 -43 -7 -54 14 -22 40 26 80 58 48z m48 -119 c28
-46 27 -54 -21 -113 l-23 -29 1 52 c0 28 -5 57 -11 63 -16 16 -15 55 1 61 23
10 27 7 53 -34z m-231 1 c0 -18 -6 -26 -23 -28 -24 -4 -38 18 -28 44 3 9 15
14 28 12 17 -2 23 -10 23 -28z m168 -82 c-14 -126 -109 -221 -236 -235 l-52
-6 25 28 c14 15 57 49 96 75 78 53 129 107 150 157 8 18 16 33 19 33 2 0 1
-24 -2 -52z m357 8 l-23 -21 19 33 c10 18 20 28 23 21 2 -6 -7 -21 -19 -33z
m-686 11 c9 -14 7 -21 -7 -32 -21 -15 -43 -11 -51 11 -16 41 35 59 58 21z
m112 8 c10 -24 -42 -93 -93 -126 -26 -16 -50 -29 -54 -29 -13 0 25 84 43 98
10 7 18 19 18 27 0 15 45 44 68 45 7 0 15 -7 18 -15z m-172 -61 c23 -9 20 -39
-6 -69 -21 -23 -137 -79 -146 -70 -8 7 31 55 45 55 8 0 20 14 27 31 7 18 24
38 37 45 29 16 24 15 43 8z m177 -51 c-12 -46 -41 -76 -93 -98 -46 -19 -97
-19 -133 -1 l-27 14 31 7 c17 4 31 11 31 16 0 5 7 9 16 9 10 0 7 -8 -13 -26
l-28 -25 25 7 c77 20 171 90 186 137 12 37 16 1 5 -40z m-283 30 c13 -25 4
-43 -19 -43 -25 0 -35 25 -19 45 16 20 27 19 38 -2z m1507 -56 c-38 -67 -113
-130 -179 -151 -64 -20 -203 -23 -220 -5 -8 9 -8 10 2 5 6 -4 27 -2 45 4 17 5
85 26 150 45 128 38 147 46 167 69 7 10 -5 6 -31 -8 -24 -14 -84 -33 -134 -42
-52 -11 -95 -24 -102 -33 -6 -9 -14 -14 -17 -11 -3 3 16 29 42 57 45 49 51 52
120 63 39 7 96 24 125 38 28 15 53 24 55 21 1 -3 -9 -26 -23 -52z m-1165 14
c0 -5 -7 -11 -15 -15 -9 -3 -15 0 -15 9 0 8 7 15 15 15 8 0 15 -4 15 -9z m826
-86 c-73 -68 -203 -142 -231 -131 -9 3 -14 2 -11 -2 2 -4 -26 -18 -62 -31 -71
-25 -182 -79 -269 -131 -29 -18 -53 -29 -53 -26 0 3 15 13 33 22 17 9 73 58
122 108 50 51 106 100 125 111 33 17 384 141 405 143 6 1 -21 -28 -59 -63z
m-1123 -12 c-7 -2 -21 -2 -30 0 -10 3 -4 5 12 5 17 0 24 -2 18 -5z m365 -45
c-26 -64 -26 -64 -38 -52 -5 5 -6 24 -2 42 6 28 18 40 59 61 1 1 -8 -23 -19
-51z m-293 -3 c103 -28 173 -32 215 -10 44 23 36 4 -20 -49 -89 -83 -138 -92
-272 -50 -56 18 -95 25 -125 21 -30 -3 -41 -1 -36 7 4 6 -6 -1 -21 -16 -25
-24 -133 -74 -142 -65 -2 2 12 26 31 54 38 57 111 110 164 119 20 3 41 7 46 9
27 9 78 3 160 -20z m75 15 c0 -5 -4 -10 -10 -10 -5 0 -10 5 -10 10 0 6 5 10
10 10 6 0 10 -4 10 -10z m914 -56 c9 -3 13 -10 10 -15 -3 -5 9 -9 27 -9 57 0
26 -7 -61 -14 l-85 -7 40 25 c44 28 46 29 69 20z m-758 -69 c-33 -84 -120
-116 -210 -77 -32 15 -46 17 -46 9 0 -7 22 -21 49 -32 l49 -19 -21 -32 -22
-32 -20 33 c-43 70 -81 114 -108 126 -15 6 -26 13 -24 15 5 5 100 -27 112 -37
5 -5 29 -9 55 -9 58 0 141 39 171 79 30 41 36 32 15 -24z m925 -14 c-38 -47
-103 -92 -180 -123 -51 -21 -73 -23 -231 -23 -96 -1 -185 -4 -197 -9 -13 -4
-23 -4 -23 1 0 12 128 62 189 73 29 5 95 10 145 10 101 0 214 21 248 44 29 20
26 20 -52 -5 -50 -16 -104 -23 -235 -28 -135 -6 -178 -11 -210 -26 -43 -20
-117 -68 -152 -99 -13 -10 -36 -20 -52 -20 l-30 -1 26 23 c37 31 185 118 196
114 5 -2 42 11 82 28 102 42 178 57 344 70 80 6 147 13 150 15 2 3 6 3 9 0 2
-2 -10 -22 -27 -44z m-294 33 c-3 -3 -12 -4 -19 -1 -8 3 -5 6 6 6 11 1 17 -2
13 -5z m-997 -18 c0 -9 -30 -14 -35 -6 -4 6 3 10 14 10 12 0 21 -2 21 -4z
m-45 -41 c0 -25 -40 -33 -49 -10 -9 24 2 37 27 33 14 -2 22 -10 22 -23z m88
-10 c44 -31 49 -42 7 -20 -16 8 -36 15 -45 15 -8 0 -15 7 -15 15 0 21 10 19
53 -10z m-163 3 c0 -4 -15 -8 -32 -8 -20 0 -28 3 -21 8 16 10 53 10 53 0z m36
-53 c83 -49 122 -125 110 -216 -4 -26 -25 -85 -47 -131 l-40 -83 6 55 c17 169
18 208 1 256 -9 26 -26 58 -38 71 -12 13 -17 23 -10 23 6 0 22 -15 37 -32 15
-18 22 -24 17 -13 -13 27 -45 55 -68 60 -33 7 -93 31 -101 40 -17 18 93 -7
133 -30z m166 -12 c43 -40 58 -75 58 -133 0 -62 -24 -111 -79 -165 -47 -45
-48 -44 -21 10 36 70 19 182 -38 250 -9 11 0 5 21 -14 20 -19 42 -51 48 -70 5
-20 15 -45 20 -56 7 -14 7 -30 0 -48 -15 -40 -2 -33 15 8 29 69 5 172 -48 209
-33 23 -32 13 1 -23 33 -36 54 -89 49 -123 -3 -18 -7 -14 -17 20 -17 59 -73
119 -124 133 l-41 11 24 14 c37 21 97 11 132 -23z m-307 2 c30 -29 32 -45 5
-38 -11 3 -17 10 -13 16 6 11 -87 4 -124 -10 -13 -4 -10 3 11 25 38 41 85 43
121 7z m112 -43 c24 -29 57 -115 51 -133 -2 -6 -12 8 -22 32 -32 79 -51 113
-66 117 -11 4 -11 0 3 -21 14 -21 14 -27 4 -27 -16 0 -41 27 -51 54 -6 16 -3
18 26 12 18 -3 43 -19 55 -34z m454 -1 c62 -62 20 -151 -72 -151 -73 0 -108
104 -53 155 38 35 87 34 125 -4z m462 -37 c-7 -18 -33 -26 -33 -10 0 16 7 23
24 23 8 0 12 -6 9 -13z m-153 -3 c0 -5 3 -16 6 -24 3 -10 -2 -18 -14 -21 -11
-4 -39 -20 -62 -37 l-42 -31 22 -23 c19 -21 20 -26 8 -43 -13 -19 -15 -18 -55
18 l-42 37 24 23 c14 13 25 29 25 36 0 16 25 25 37 13 7 -7 21 -4 42 9 17 10
28 21 25 25 -8 7 4 27 17 27 5 0 9 -4 9 -9z m98 -8 c-2 -10 -10 -18 -18 -18
-8 0 -16 8 -18 18 -2 12 3 17 18 17 15 0 20 -5 18 -17z m144 -6 c-3 -19 60
-56 66 -38 6 19 18 12 50 -33 l32 -44 -49 -39 c-37 -29 -47 -43 -40 -54 16
-26 9 -35 -41 -51 -47 -15 -50 -15 -55 3 -11 34 -55 59 -102 59 -122 0 -145
-171 -28 -210 19 -6 45 -8 57 -5 39 12 78 57 84 97 4 21 12 38 18 39 6 0 29 3
50 5 l39 5 -6 -58 c-12 -111 -94 -183 -211 -183 -68 0 -90 9 -81 32 5 13 18
15 65 11 94 -9 164 42 180 130 4 20 4 40 0 42 -4 3 -10 -13 -14 -35 -4 -23
-19 -54 -37 -75 -107 -121 -298 -16 -259 143 8 35 19 53 44 70 71 49 139 49
199 2 24 -19 24 -19 47 5 18 19 26 22 33 13 6 -10 7 -9 4 2 -2 8 6 27 19 41
l24 25 -44 32 c-24 18 -49 32 -55 32 -16 0 -23 18 -16 41 8 23 31 20 27 -4z
m-58 7 c23 -9 20 -24 -4 -24 -11 0 -20 7 -20 15 0 17 2 18 24 9z m-134 -14 c0
-5 -6 -10 -14 -10 -8 0 -18 5 -21 10 -3 6 3 10 14 10 12 0 21 -4 21 -10z m40
-32 c17 -11 22 -10 29 0 6 9 19 11 43 7 29 -6 35 -10 30 -27 -4 -17 -10 -19
-51 -13 -25 3 -61 1 -78 -4 -18 -5 -33 -6 -33 -1 0 5 -3 15 -6 23 -5 14 6 21
39 26 4 0 16 -5 27 -11z m-472 -93 c17 -3 36 -4 42 0 6 4 33 -1 61 -10 27 -9
56 -14 64 -11 8 3 15 2 15 -2 0 -14 -69 -42 -102 -42 -32 0 -118 44 -118 60 0
5 -12 15 -27 22 -17 8 -29 23 -32 38 -3 24 -1 23 31 -11 19 -20 49 -40 66 -44z
m386 59 c4 -9 5 -17 4 -18 -2 -1 -17 -11 -35 -23 -28 -20 -32 -21 -44 -6 -11
13 -9 19 14 39 33 28 52 30 61 8z m247 -1 c31 -19 36 -32 17 -51 -9 -9 -18 -6
-39 14 -15 15 -25 33 -22 40 7 18 9 18 44 -3z m-97 -24 c22 -6 50 -18 63 -27
21 -13 22 -17 10 -29 -13 -13 -19 -13 -46 2 -53 27 -135 21 -174 -13 -16 -14
-19 -14 -33 0 -15 15 -14 18 10 33 29 20 93 44 116 45 8 0 33 -5 54 -11z
m-592 -72 c22 -22 26 -32 18 -47 -6 -10 -10 -40 -10 -67 0 -54 23 -100 65
-129 15 -11 43 -33 63 -50 21 -17 58 -41 85 -52 41 -18 63 -42 39 -42 -14 0
-52 -36 -52 -49 0 -7 -12 1 -26 18 -25 30 -42 35 -56 16 -4 -5 -6 0 -6 11 2
18 6 20 28 15 14 -4 31 -6 38 -5 6 1 21 2 32 3 11 0 20 5 20 10 0 4 -29 11
-65 14 -77 6 -131 36 -169 95 -39 59 -53 172 -31 241 3 12 2 21 -2 21 -5 0
-14 -19 -20 -42 -7 -24 -15 -52 -18 -63 -6 -17 -5 -17 5 -5 9 12 9 7 3 -20
-16 -69 -9 -172 15 -217 30 -57 36 -55 10 3 -22 50 -38 181 -19 154 6 -8 11
-32 11 -53 0 -50 36 -156 63 -184 41 -45 8 -33 -46 17 -96 88 -112 178 -58
334 17 49 31 101 32 115 0 24 1 25 12 6 7 -10 24 -32 39 -48z m1150 11 c4 -32
57 -42 78 -16 14 17 17 17 38 2 17 -11 22 -23 18 -37 -8 -31 21 -59 46 -46 35
19 65 -25 34 -50 -11 -9 -13 -26 -9 -67 l6 -54 -32 0 c-27 0 -31 3 -31 28 0
16 -10 48 -23 72 -51 98 -188 120 -268 44 -25 -24 -26 -24 -43 -5 -10 11 -15
24 -12 30 4 6 2 19 -3 30 -9 15 -6 22 15 36 19 12 29 14 39 5 9 -7 26 -9 45
-5 23 5 30 12 30 31 0 21 5 24 34 24 28 0 35 -4 38 -22z m-842 -23 c11 -3 20
-13 20 -20 0 -27 -20 -67 -33 -62 -6 2 -20 -2 -29 -11 -17 -14 -18 -13 -18 11
0 14 5 38 11 54 7 18 7 29 0 31 -5 2 -7 10 -4 17 4 13 7 13 19 0 8 -7 23 -17
34 -20z m525 -37 c13 -45 13 -54 1 -73 -13 -19 -13 -24 0 -36 11 -12 11 -22 3
-54 -16 -58 -29 -68 -58 -46 -20 15 -22 21 -12 39 14 26 14 132 1 167 -9 23
-7 30 12 45 13 10 26 16 30 14 4 -3 14 -28 23 -56z m-435 42 c0 -5 -5 -10 -11
-10 -5 0 -7 5 -4 10 3 6 8 10 11 10 2 0 4 -4 4 -10z m480 -19 c0 -26 -27 -35
-33 -11 -4 17 4 27 26 29 4 1 7 -8 7 -18z m-803 -20 c-7 -2 -19 -10 -28 -17
-14 -12 -15 -11 -11 15 4 26 6 27 28 17 13 -6 18 -13 11 -15z m162 -14 c-5
-20 -13 -37 -17 -38 -7 0 -40 -6 -64 -11 -8 -2 -14 9 -16 29 -3 30 -1 32 28
31 18 -1 35 3 38 9 6 9 34 22 39 19 1 -1 -2 -19 -8 -39z m155 -6 c-27 -61 -10
-138 43 -187 21 -19 23 -26 13 -44 l-12 -22 -30 28 c-41 39 -68 99 -68 156 0
67 14 98 40 91 15 -4 19 -10 14 -22z m-280 -18 c-7 -16 -14 -50 -14 -76 0 -45
-1 -47 -20 -37 -26 14 -42 54 -34 85 3 13 20 30 37 39 44 21 48 20 31 -11z
m-321 2 c-3 -9 -8 -14 -10 -11 -3 3 -2 9 2 15 9 16 15 13 8 -4z m797 -5 c39
-39 11 -110 -44 -110 -25 0 -66 41 -66 65 0 7 9 24 21 39 25 31 61 34 89 6z
m-280 -45 c0 -24 -2 -25 -70 -25 -58 0 -68 3 -64 15 4 10 20 15 49 15 24 0 47
5 50 10 12 20 35 10 35 -15z m886 0 c49 -32 75 -105 56 -156 -9 -21 -15 -25
-40 -21 -29 4 -30 6 -20 33 26 76 -53 139 -112 91 -23 -18 -24 -18 -42 0 -16
16 -17 22 -6 35 35 43 114 51 164 18z m-1036 -6 c0 -5 -6 -9 -12 -10 -7 0 -1
-5 15 -11 15 -5 27 -13 27 -17 0 -8 -45 -31 -61 -31 -9 0 -11 65 -2 82 5 9 33
-2 33 -13z m750 -4 c0 -10 -11 -15 -35 -15 -24 0 -35 5 -35 15 0 10 11 15 35
15 24 0 35 -5 35 -15z m-1156 -34 c-5 -22 -10 -29 -17 -22 -7 7 -6 18 3 36 7
14 15 23 17 22 2 -2 0 -18 -3 -36z m1212 18 c9 -15 -11 -33 -30 -26 -9 4 -13
13 -10 22 7 17 30 20 40 4z m34 -5 c0 -8 -5 -12 -10 -9 -6 4 -8 11 -5 16 9 14
15 11 15 -7z m-673 -49 c10 -30 9 -35 -8 -40 -10 -4 -19 -11 -19 -16 0 -5 -4
-9 -9 -9 -7 0 -41 80 -41 97 0 2 15 3 33 3 30 0 35 -4 44 -35z m633 -12 c0
-20 17 -15 23 7 6 25 37 27 37 2 0 -13 -13 -21 -45 -30 -34 -9 -46 -18 -51
-37 -8 -33 1 -54 27 -63 20 -8 20 -9 3 -23 -11 -8 -15 -9 -10 -1 9 15 -6 16
-22 0 -9 -9 -16 -7 -31 6 -29 26 -49 15 -45 -24 2 -17 0 -29 -4 -27 -4 2 -16
7 -26 11 -19 6 -19 7 0 21 10 8 15 15 10 15 -5 0 -1 9 9 20 15 16 16 24 7 45
-6 13 -7 27 -3 29 5 3 11 19 14 35 3 16 13 36 22 44 14 15 19 15 50 -1 19 -9
35 -23 35 -29z m-770 6 c-15 -26 12 -59 47 -59 26 0 29 -8 10 -34 -13 -18 -15
-18 -51 -1 -21 10 -44 29 -53 41 -8 13 -22 24 -29 24 -17 0 -18 16 -2 26 7 5
8 2 3 -7 -6 -11 -5 -12 6 -1 7 6 23 12 35 12 13 0 26 5 29 10 12 19 16 10 5
-11z m958 -13 c2 -10 -1 -23 -7 -29 -14 -14 -57 25 -46 43 11 17 49 8 53 -14z
m-898 -6 c0 -14 -33 -21 -41 -8 -5 8 -2 15 9 19 19 7 32 3 32 -11z m110 -40
c9 -17 7 -24 -10 -38 l-22 -18 39 -26 c21 -14 49 -28 61 -32 15 -5 21 -13 18
-23 -3 -8 -6 -19 -6 -24 0 -5 -7 -9 -16 -9 -10 0 -14 6 -11 14 4 9 -6 22 -26
35 -27 17 -32 18 -42 5 -9 -13 -16 -9 -43 25 -18 22 -32 42 -32 46 0 7 63 64
72 65 4 0 12 -9 18 -20z m448 -73 c-32 -46 -51 -59 -61 -42 -6 12 -13 11 -37
-3 -16 -9 -30 -25 -30 -34 0 -23 -17 -32 -27 -13 -12 20 -74 10 -66 -11 3 -8
-1 -14 -10 -14 -9 0 -17 10 -19 23 -2 18 -10 23 -46 25 -38 3 -43 6 -40 25 1
12 -1 27 -5 34 -5 9 2 9 29 1 20 -5 57 -8 82 -6 38 2 47 0 50 -14 3 -15 -4
-18 -37 -18 -24 0 -41 -5 -41 -11 0 -15 84 -2 125 18 41 21 85 53 85 61 0 4
-9 13 -21 20 -19 12 -20 11 -14 -7 3 -12 2 -21 -2 -21 -5 0 -19 -9 -31 -21
-22 -20 -42 -18 -42 4 0 7 12 20 28 29 15 9 38 28 51 42 l24 25 39 -30 38 -31
-22 -31z m-767 21 c6 1 8 -2 5 -6 -6 -11 20 -36 47 -45 15 -6 16 -10 5 -27 -7
-11 -16 -20 -19 -20 -4 0 -20 20 -35 44 -19 30 -31 41 -36 33 -5 -8 -8 -5 -9
8 -1 11 -3 25 -3 32 -1 6 -5 15 -9 19 -4 4 -7 12 -7 18 0 5 12 -6 26 -25 14
-19 30 -33 35 -31z m933 56 c20 -8 21 -43 1 -50 -24 -10 -47 14 -34 37 11 21
11 21 33 13z m-555 -54 c14 -12 21 -26 17 -35 -5 -14 -10 -13 -36 6 -31 23
-35 31 -23 42 10 10 16 8 42 -13z m659 -23 c2 -10 -3 -17 -12 -17 -18 0 -29
16 -21 31 9 14 29 6 33 -14z m-192 -45 c-9 -8 -26 10 -26 26 1 15 2 15 15 -2
8 -11 13 -21 11 -24z m98 14 c-3 -9 -11 -16 -17 -16 -5 0 2 -11 17 -25 37 -34
37 -95 0 -124 -72 -57 -170 20 -128 101 17 32 43 48 78 48 15 0 30 8 36 21 13
24 24 20 14 -5z m-654 -46 c40 -40 15 -110 -39 -110 -32 0 -44 8 -60 37 -15
30 -14 36 10 67 25 31 61 34 89 6z m716 5 c-26 -19 -42 -19 -26 0 7 8 20 15
29 15 13 -1 13 -3 -3 -15z m-872 -11 c8 -21 -1 -34 -24 -34 -20 0 -30 17 -22
38 6 17 39 15 46 -4z m210 -9 c13 -19 13 -23 2 -19 -8 3 -16 14 -19 25 -7 25
-3 24 17 -6z m446 15 c8 -5 12 -12 9 -15 -8 -8 -39 5 -39 16 0 11 11 11 30 -1z
m-326 -41 c65 -51 0 -160 -69 -115 -53 34 -53 99 -2 124 32 15 41 14 71 -9z
m714 -54 c-9 -10 -58 36 -58 54 0 11 10 5 32 -16 18 -18 29 -35 26 -38z m-535
34 c14 -6 30 -22 36 -36 24 -53 -38 -110 -93 -85 -45 20 -47 99 -4 120 30 14
33 14 61 1z m390 4 c-7 -2 -21 -2 -30 0 -10 3 -4 5 12 5 17 0 24 -2 18 -5z
m-250 -20 c-7 -2 -21 -2 -30 0 -10 3 -4 5 12 5 17 0 24 -2 18 -5z m-439 -59
c6 -20 4 -21 -34 -14 -22 4 -44 11 -48 15 -4 4 2 6 14 3 14 -4 25 1 33 15 14
21 25 15 35 -19z m661 15 c11 -17 0 -20 -21 -4 -17 13 -17 14 -2 15 9 0 20 -5
23 -11z m-200 -19 c-10 -11 -20 -18 -23 -15 -7 6 18 35 31 35 5 0 2 -9 -8 -20z
m315 5 c10 -12 10 -18 0 -30 -25 -30 -61 -7 -46 30 3 8 12 15 19 15 8 0 20 -7
27 -15z m-590 -14 c0 -31 56 -69 96 -65 27 2 38 -4 59 -29 14 -18 50 -61 80
-97 47 -55 53 -67 40 -76 -24 -18 -17 -27 7 -10 24 17 68 22 68 7 0 -5 15 -18
34 -29 42 -25 54 -67 31 -111 -8 -17 -13 -31 -11 -31 3 0 13 14 22 31 25 49
12 93 -39 130 -73 53 -249 231 -238 242 7 7 33 -14 78 -61 37 -38 100 -98 138
-132 78 -69 94 -92 95 -133 1 -90 -114 -152 -181 -98 -21 17 -24 28 -25 89 0
61 -5 77 -35 127 -19 32 -50 69 -69 84 -19 14 -48 38 -65 53 -27 26 -104 68
-122 68 -4 0 20 -18 54 -41 183 -119 241 -296 145 -441 -33 -50 -43 -48 -25 5
11 29 14 66 10 123 -6 110 -52 199 -146 286 -36 33 -75 64 -86 69 -19 7 -19 8
3 8 12 1 32 12 44 26 26 30 38 32 38 6z m-975 -21 c0 -8 -8 -16 -17 -18 -13
-2 -18 3 -18 18 0 15 5 20 18 18 9 -2 17 -10 17 -18z m1309 -2 c-8 -27 -12
-33 -19 -27 -7 8 7 49 17 49 5 0 6 -10 2 -22z m80 6 c8 -21 8 -24 -3 -24 -5 0
-11 9 -14 20 -6 24 8 27 17 4z m106 -38 c0 -20 -19 -31 -32 -18 -6 6 -7 15 -4
21 10 16 36 13 36 -3z m40 -11 c-15 -18 -31 -75 -21 -75 4 0 13 -11 20 -24 9
-16 19 -22 32 -19 24 7 24 -8 1 -28 -17 -15 -19 -14 -32 15 -7 17 -26 47 -42
67 -26 35 -27 37 -8 42 12 3 20 14 20 25 0 15 5 19 20 15 15 -4 18 -9 10 -18z
m84 -24 c21 -23 14 -56 -15 -72 -43 -23 -92 44 -57 79 18 18 53 14 72 -7z
m-826 -98 c60 -56 92 -110 92 -153 0 -12 11 -31 25 -44 25 -23 34 -43 15 -31
-5 3 -10 -1 -10 -10 0 -8 -7 -18 -15 -21 -9 -4 -15 -19 -15 -35 0 -24 -4 -29
-23 -29 -51 0 -95 71 -77 124 10 30 37 66 50 66 9 0 6 -38 -5 -47 -4 -5 -5 -2
-1 5 4 6 2 12 -4 12 -7 0 -9 -7 -6 -16 4 -10 -1 -22 -11 -30 -17 -13 -17 -15
0 -28 10 -8 15 -20 11 -30 -5 -12 -2 -15 12 -9 10 4 15 2 11 -3 -3 -6 -2 -16
4 -24 7 -12 9 -10 9 8 0 27 -29 74 -41 66 -5 -3 -9 0 -9 5 0 6 5 11 11 11 26
0 41 31 35 72 -9 57 -30 92 -88 149 -70 68 -45 62 30 -8z m-2 -70 c-3 -8 -2
-11 3 -8 15 9 23 -32 11 -55 -16 -29 -20 -22 -29 44 -6 47 -5 54 6 44 8 -6 12
-17 9 -25z m819 17 c0 -22 -29 -18 -33 3 -3 14 1 18 15 15 10 -2 18 -10 18
-18z m-705 -10 c0 -5 -2 -10 -4 -10 -3 0 -8 5 -11 10 -3 6 -1 10 4 10 6 0 11
-4 11 -10z m28 -41 c19 -30 11 -32 -23 -4 -26 21 -28 24 -10 25 11 0 26 -9 33
-21z m2 -47 c47 -38 35 -133 -21 -163 -19 -10 -20 -9 -14 13 4 12 12 25 17 26
4 2 15 16 23 32 13 25 13 29 -1 41 -20 17 -47 69 -35 69 5 0 19 -8 31 -18z
m329 -191 c17 -11 7 -41 -13 -41 -19 0 -29 17 -22 35 6 17 15 18 35 6z m88
-16 c7 -20 -2 -29 -21 -22 -9 4 -13 13 -10 22 8 19 23 19 31 0z m-152 -65 c0
-18 -6 -26 -23 -28 -13 -2 -25 3 -28 12 -10 26 4 48 28 44 17 -2 23 -10 23
-28z"/>
<path d="M2266 2619 c-21 -32 -66 -86 -99 -119 -34 -33 -57 -63 -53 -67 6 -6
102 88 149 147 17 21 50 91 45 95 -2 2 -21 -23 -42 -56z"/>
<path d="M2086 2424 c-8 -20 -4 -25 11 -16 7 4 9 13 4 21 -6 10 -10 9 -15 -5z"/>
<path d="M1915 2473 c-21 -77 -99 -200 -197 -308 -35 -38 -52 -63 -38 -54 41
26 158 167 197 237 32 58 71 178 60 188 -2 3 -12 -26 -22 -63z"/>
<path d="M1858 2442 c-20 -31 -57 -81 -82 -110 -26 -30 -46 -56 -46 -58 0 -24
124 128 159 194 24 46 5 30 -31 -26z"/>
<path d="M2424 2359 c-10 -11 -41 -37 -69 -57 -27 -20 -53 -40 -56 -45 -3 -5
-10 -8 -15 -8 -5 1 -16 -5 -24 -12 -16 -14 -41 -25 -50 -23 -3 0 -16 -7 -30
-17 -13 -9 -32 -17 -41 -17 -9 0 -22 -7 -29 -15 -7 -8 -16 -12 -21 -9 -5 3 -9
0 -9 -6 0 -7 -6 -10 -13 -7 -7 3 -21 -1 -32 -9 -15 -11 -16 -17 -7 -26 9 -9
12 -9 12 4 0 10 8 14 25 13 16 -2 23 1 18 8 -4 6 0 8 9 4 9 -3 24 3 34 14 9
10 25 19 36 19 10 0 18 5 18 10 0 6 7 10 16 10 21 0 86 31 79 38 -3 3 12 13
33 23 20 9 51 30 67 46 39 36 80 83 73 83 -3 0 -13 -9 -24 -21z m-294 -193 c0
-2 -8 -10 -17 -17 -16 -13 -17 -12 -4 4 13 16 21 21 21 13z"/>
<path d="M2395 2283 c-72 -80 -148 -130 -326 -218 -73 -36 -135 -68 -138 -71
-12 -12 61 21 213 96 174 85 260 150 297 221 10 22 18 39 17 38 -2 0 -30 -30
-63 -66z"/>
<path d="M1980 2105 c-7 -9 -10 -18 -6 -22 3 -3 6 -1 6 6 0 7 4 10 8 7 5 -3 9
1 9 9 0 19 -2 19 -17 0z"/>
<path d="M1935 2090 c-16 -7 -17 -9 -3 -9 9 -1 20 4 23 9 7 11 7 11 -20 0z"/>
<path d="M1884 2069 c-3 -5 -4 -9 -2 -10 25 -6 39 -6 43 1 3 4 -4 10 -15 13
-11 3 -23 1 -26 -4z"/>
<path d="M1790 2021 c-73 -44 -178 -136 -211 -184 l-22 -32 37 35 c21 19 52
49 70 65 17 17 42 37 55 45 13 8 34 23 46 33 13 9 27 17 33 17 5 0 19 9 31 19
13 11 28 19 34 17 7 -1 9 -1 4 1 -4 3 -5 9 -1 14 10 17 -11 9 -76 -30z"/>
<path d="M1815 1942 c-87 -47 -127 -73 -121 -80 3 -3 12 1 20 7 8 7 30 21 48
30 83 45 142 81 133 81 -5 0 -41 -17 -80 -38z"/>
<path d="M1650 1845 c0 -8 7 -15 15 -15 8 0 15 7 15 15 0 8 -7 15 -15 15 -8 0
-15 -7 -15 -15z"/>
<path d="M1569 1762 c-36 -37 -73 -80 -83 -97 -15 -26 -13 -26 11 5 15 19 54
61 86 93 33 32 57 60 55 62 -2 3 -33 -26 -69 -63z"/>
<path d="M1495 2340 c-3 -6 1 -7 9 -4 18 7 21 14 7 14 -6 0 -13 -4 -16 -10z"/>
<path d="M1320 2260 c-9 -6 -10 -10 -3 -10 6 0 15 5 18 10 8 12 4 12 -15 0z"/>
<path d="M1466 2115 c-31 -50 -67 -79 -135 -112 -52 -24 -30 -31 27 -7 47 19
87 57 119 112 34 57 25 63 -11 7z"/>
<path d="M1148 2183 c7 -3 16 -2 19 1 4 3 -2 6 -13 5 -11 0 -14 -3 -6 -6z"/>
<path d="M1236 2039 c-21 -16 -34 -29 -28 -29 7 0 26 13 44 30 42 37 34 37
-16 -1z"/>
<path d="M950 1911 c-43 -13 -84 -38 -105 -62 l-20 -24 20 17 c46 39 114 60
183 57 37 -2 72 -7 79 -12 17 -13 170 -14 182 -2 7 7 -2 9 -28 7 -21 -2 -76 3
-123 12 -90 17 -147 19 -188 7z"/>
<path d="M925 1870 c-14 -6 -8 -7 20 -4 25 4 74 -3 129 -16 90 -21 163 -21
196 1 10 7 5 7 -15 2 -46 -12 -124 -7 -184 11 -59 17 -115 20 -146 6z"/>
<path d="M1325 1800 c-3 -6 -23 -19 -43 -30 -22 -11 -30 -19 -20 -20 10 0 32
13 50 30 18 16 30 30 26 30 -4 0 -10 -5 -13 -10z"/>
<path d="M967 1570 c3 -36 7 -67 9 -69 8 -9 2 95 -6 114 -4 12 -6 -7 -3 -45z"/>
<path d="M1244 1644 c-19 -15 -19 -16 1 -8 11 4 32 7 47 8 15 0 24 4 22 8 -9
13 -49 9 -70 -8z"/>
<path d="M1337 1643 c-4 -3 -7 -17 -7 -30 0 -23 -32 -63 -50 -63 -6 0 -22 12
-37 26 -14 14 -28 23 -31 19 -9 -9 45 -55 66 -55 17 0 61 33 63 48 2 19 5 62
3 62 0 0 -4 -3 -7 -7z"/>
<path d="M1267 1624 c-14 -14 -7 -35 11 -32 9 2 17 10 17 17 0 16 -18 25 -28
15z"/>
<path d="M1284 1454 c19 -13 94 -29 102 -21 2 2 -23 11 -58 19 -47 12 -57 12
-44 2z"/>
<path d="M1126 1305 c-9 -26 -7 -32 5 -12 6 10 9 21 6 23 -2 3 -7 -2 -11 -11z"/>
<path d="M1237 1193 c18 -18 43 -33 55 -33 19 1 16 4 -12 16 -19 8 -44 23 -55
32 -12 9 -6 2 12 -15z"/>
<path d="M1280 1310 c-9 -6 -10 -10 -3 -10 6 0 15 5 18 10 8 12 4 12 -15 0z"/>
<path d="M1730 1340 c0 -5 12 -10 26 -10 14 0 23 4 19 10 -3 6 -15 10 -26 10
-10 0 -19 -4 -19 -10z"/>
<path d="M1772 1311 c-7 -4 -25 -6 -39 -3 -18 3 -24 1 -19 -7 10 -16 71 -14
86 4 10 12 10 15 -1 15 -8 0 -20 -4 -27 -9z"/>
<path d="M2123 1003 c9 -2 25 -2 35 0 9 3 1 5 -18 5 -19 0 -27 -2 -17 -5z"/>
<path d="M2127 984 c-14 -14 -7 -35 11 -32 9 2 17 10 17 17 0 16 -18 25 -28
15z"/>
<path d="M2080 953 c0 -15 28 -43 43 -43 7 0 4 5 -5 11 -10 5 -22 17 -27 27
-6 9 -11 12 -11 5z"/>
<path d="M2173 933 c-12 -13 -19 -23 -14 -23 10 0 46 39 40 43 -2 2 -14 -7
-26 -20z"/>
<path d="M1471 991 c-7 -13 -6 -23 3 -36 17 -24 50 -15 54 14 6 39 -39 56 -57
22z"/>
<path d="M1645 950 c-17 -18 -17 -21 -1 -45 20 -30 42 -29 62 0 12 18 11 24
-2 43 -19 27 -36 28 -59 2z m45 -25 c0 -8 -7 -15 -15 -15 -8 0 -15 7 -15 15 0
8 7 15 15 15 8 0 15 -7 15 -15z"/>
<path d="M1853 923 c-18 -6 -16 -42 2 -49 8 -4 22 -1 30 6 24 20 -1 54 -32 43z"/>
<path d="M2340 870 c0 -5 5 -10 10 -10 6 0 10 5 10 10 0 6 -4 10 -10 10 -5 0
-10 -4 -10 -10z"/>
<path d="M2092 538 c-17 -17 -15 -44 4 -62 22 -23 41 -20 60 9 16 24 16 27 -1
45 -20 23 -45 26 -63 8z m48 -33 c0 -8 -6 -15 -14 -15 -17 0 -28 14 -19 24 12
12 33 6 33 -9z"/>
<path d="M1662 458 c2 -13 10 -23 18 -23 8 0 16 10 18 23 3 17 -2 22 -18 22
-16 0 -21 -5 -18 -22z"/>
<path d="M1640 2400 c0 -5 7 -10 15 -10 8 0 15 5 15 10 0 6 -7 10 -15 10 -8 0
-15 -4 -15 -10z"/>
<path d="M2511 2394 c0 -11 3 -14 6 -6 3 7 2 16 -1 19 -3 4 -6 -2 -5 -13z"/>
<path d="M1143 2329 c-38 -11 -46 -34 -8 -25 37 9 75 25 75 31 0 7 -30 5 -67
-6z"/>
<path d="M1020 2274 c-173 -97 -299 -233 -398 -430 -49 -97 -24 -84 28 14 102
193 251 345 405 413 25 11 43 24 40 30 -8 12 0 14 -75 -27z"/>
<path d="M2477 2203 c-4 -3 -7 -17 -7 -30 0 -21 4 -24 27 -21 18 2 29 10 31
22 5 26 -33 48 -51 29z m38 -22 c7 -12 -12 -24 -25 -16 -11 7 -4 25 10 25 5 0
11 -4 15 -9z"/>
<path d="M2551 2174 c0 -11 3 -14 6 -6 3 7 2 16 -1 19 -3 4 -6 -2 -5 -13z"/>
<path d="M890 2054 c0 -8 5 -12 10 -9 6 3 10 10 10 16 0 5 -4 9 -10 9 -5 0
-10 -7 -10 -16z"/>
<path d="M837 2024 c-8 -8 1 -24 14 -24 5 0 9 7 9 15 0 15 -12 20 -23 9z"/>
<path d="M780 1970 c0 -5 7 -10 15 -10 8 0 15 5 15 10 0 6 -7 10 -15 10 -8 0
-15 -4 -15 -10z"/>
<path d="M2482 1918 c-15 -15 -16 -55 -1 -63 5 -4 23 -1 39 5 26 11 28 15 18
34 -19 35 -37 43 -56 24z m33 -38 c-5 -8 -11 -8 -17 -2 -6 6 -7 16 -3 22 5 8
11 8 17 2 6 -6 7 -16 3 -22z"/>
<path d="M2420 1826 c-6 -8 -19 -12 -28 -9 -15 4 -15 3 -2 -6 13 -9 13 -11 0
-12 -8 -1 -19 0 -25 1 -5 1 -7 -2 -2 -6 9 -10 -33 -55 -45 -48 -5 3 -12 -3
-15 -14 -3 -13 -11 -18 -19 -15 -10 4 -12 0 -8 -11 5 -12 2 -15 -12 -9 -10 4
-15 2 -11 -4 3 -5 -3 -17 -14 -26 -24 -21 -24 -34 1 -42 20 -7 31 1 134 94 17
14 27 19 23 11 -4 -8 -2 -6 5 4 7 10 25 30 41 44 31 29 36 62 8 62 -10 0 -24
-6 -31 -14z m38 -4 c-7 -17 -209 -194 -215 -188 -4 3 22 32 58 64 35 31 82 74
104 94 38 35 61 48 53 30z"/>
<path d="M2508 1816 c-10 -14 -18 -31 -18 -39 0 -17 -28 -42 -57 -51 -13 -4
-22 -10 -22 -14 3 -20 -3 -25 -12 -12 -9 13 -10 13 -6 0 4 -17 -35 -53 -44
-39 -9 15 -39 -1 -39 -20 1 -14 2 -14 14 2 9 11 17 14 20 8 4 -6 -2 -16 -14
-23 -25 -16 -26 -43 -2 -58 15 -10 15 -10 -4 -5 -27 7 -59 -17 -51 -39 6 -15
25 -16 169 -14 l163 3 0 25 c0 24 -2 25 -68 26 -37 1 -71 4 -74 8 -3 3 -1 6 6
6 7 0 19 7 28 16 9 8 21 13 28 10 7 -2 21 4 31 15 15 17 16 25 7 49 -10 26 -8
29 12 34 16 4 27 18 35 42 11 32 10 39 -7 63 -27 36 -72 39 -95 7z m90 -44 c4
-29 -42 -60 -63 -42 -12 10 -31 -2 -107 -64 -51 -42 -97 -76 -102 -76 -15 0
16 30 101 97 48 39 83 74 83 84 0 10 10 25 22 33 19 13 25 14 43 2 11 -7 21
-23 23 -34z m-124 -104 c-48 -37 -52 -44 -50 -75 2 -29 0 -31 -31 -28 -19 1
-36 5 -39 8 -6 6 125 117 139 117 5 0 -3 -10 -19 -22z m71 -18 c0 -9 -9 -15
-22 -15 -12 0 -33 -11 -47 -24 -14 -14 -29 -21 -33 -18 -9 10 69 77 87 74 8
-1 15 -9 15 -17z m43 -115 c-2 -3 -70 -6 -151 -8 -132 -2 -166 1 -153 14 7 6
306 1 304 -6z"/>
<path d="M2533 1774 c-6 -16 14 -36 31 -31 21 7 16 27 -6 28 -22 0 -22 1 -3 9
18 8 18 9 2 9 -10 1 -20 -6 -24 -15z"/>
<path d="M2390 1599 c0 -5 5 -7 10 -4 6 3 10 8 10 11 0 2 -4 4 -10 4 -5 0 -10
-5 -10 -11z"/>
<path d="M2092 1640 c-33 -27 -38 -70 -12 -103 12 -15 30 -27 41 -27 11 0 17
-4 14 -10 -3 -5 -1 -10 4 -10 6 0 11 4 11 9 0 5 9 11 19 14 29 7 54 52 47 82
-15 60 -78 83 -124 45z m86 -16 c28 -19 29 -57 2 -84 -26 -26 -43 -25 -76 3
-20 18 -25 29 -20 45 16 50 54 65 94 36z"/>
<path d="M2116 1598 c3 -4 14 -8 24 -8 10 0 21 4 24 8 3 5 -8 9 -24 9 -16 0
-27 -4 -24 -9z"/>
<path d="M2128 1563 c6 -2 18 -2 25 0 6 3 1 5 -13 5 -14 0 -19 -2 -12 -5z"/>
<path d="M541 1616 c-12 -15 -6 -41 7 -32 4 2 5 -25 4 -60 l-4 -64 -34 0 c-19
0 -34 -5 -34 -11 0 -7 13 -10 34 -7 l33 4 6 -86 c8 -104 28 -182 73 -280 44
-94 62 -122 75 -114 7 4 5 12 -4 22 -56 63 -115 242 -124 373 l-6 86 49 -7
c27 -4 52 -6 56 -4 4 3 5 19 2 37 -3 17 2 57 10 87 8 30 12 57 10 59 -12 12
-27 -24 -37 -88 l-11 -71 -39 0 -39 0 3 82 c4 83 -5 104 -30 74z m24 -6 c-3
-5 -11 -10 -16 -10 -6 0 -7 5 -4 10 3 6 11 10 16 10 6 0 7 -4 4 -10z"/>
<path d="M746 1553 c-11 -11 -6 -23 9 -23 8 0 15 4 15 9 0 13 -16 22 -24 14z"/>
<path d="M737 1464 c-14 -15 6 -24 53 -24 27 0 52 5 55 10 4 6 -10 10 -34 10
-21 0 -46 2 -53 5 -8 3 -17 3 -21 -1z"/>
<path d="M742 1369 c2 -6 8 -10 13 -10 5 0 11 4 13 10 2 6 -4 11 -13 11 -9 0
-15 -5 -13 -11z"/>
<path d="M663 1314 c3 -31 11 -62 18 -68 9 -8 10 -2 5 29 -3 22 -6 52 -6 68 0
15 -5 27 -11 27 -8 0 -10 -17 -6 -56z"/>
<path d="M752 1279 c2 -6 8 -10 13 -10 5 0 11 4 13 10 2 6 -4 11 -13 11 -9 0
-15 -5 -13 -11z"/>
<path d="M1051 1254 c0 -11 3 -14 6 -6 3 7 2 16 -1 19 -3 4 -6 -2 -5 -13z"/>
<path d="M1041 1189 c1 -24 5 -55 9 -69 5 -16 6 0 3 40 -6 76 -13 93 -12 29z"/>
<path d="M780 1195 c0 -9 5 -15 11 -13 6 2 11 8 11 13 0 5 -5 11 -11 13 -6 2
-11 -4 -11 -13z"/>
<path d="M700 1170 c0 -5 5 -10 10 -10 6 0 10 5 10 10 0 6 -4 10 -10 10 -5 0
-10 -4 -10 -10z"/>
<path d="M820 1115 c0 -9 5 -15 11 -13 6 2 11 8 11 13 0 5 -5 11 -11 13 -6 2
-11 -4 -11 -13z"/>
<path d="M2324 1096 c-8 -22 10 -42 45 -49 15 -3 42 -17 59 -31 32 -28 73 -34
90 -13 9 12 23 81 14 72 -3 -3 -12 1 -20 8 -8 6 -36 12 -61 13 -25 0 -63 4
-83 9 -30 6 -39 4 -44 -9z m141 -30 c16 12 21 11 37 -3 23 -21 23 -40 -1 -53
-22 -11 -47 -5 -54 14 -3 7 -30 23 -61 36 -31 12 -53 26 -50 31 2 5 29 -2 58
-15 45 -20 55 -21 71 -10z"/>
<path d="M2468 1038 c5 -5 16 -8 23 -6 8 3 3 7 -10 11 -17 4 -21 3 -13 -5z"/>
<path d="M737 1094 c-8 -8 1 -24 14 -24 5 0 9 7 9 15 0 15 -12 20 -23 9z"/>
<path d="M2551 1044 c0 -11 3 -14 6 -6 3 7 2 16 -1 19 -3 4 -6 -2 -5 -13z"/>
<path d="M872 1039 c2 -6 8 -10 13 -10 5 0 11 4 13 10 2 6 -4 11 -13 11 -9 0
-15 -5 -13 -11z"/>
<path d="M2381 1014 c12 -13 28 -24 36 -24 24 0 13 15 -23 32 l-36 16 23 -24z"/>
<path d="M785 1000 c3 -5 10 -10 16 -10 5 0 9 5 9 10 0 6 -7 10 -16 10 -8 0
-12 -4 -9 -10z"/>
<path d="M1405 856 c11 -7 55 -28 97 -46 151 -62 257 -147 318 -253 37 -64 39
-55 4 14 -54 108 -131 169 -314 250 -117 51 -138 58 -105 35z"/>
<path d="M1610 804 c0 -2 13 -10 29 -18 16 -9 54 -38 85 -67 31 -28 56 -46 56
-40 0 14 -126 118 -151 124 -10 3 -19 3 -19 1z"/>
<path d="M1180 660 c0 -87 4 -140 10 -140 6 0 10 12 10 26 0 19 4 24 18 20 79
-24 142 -31 142 -16 0 6 -12 10 -27 10 -16 0 -50 6 -78 13 l-50 13 -3 107 c-4
160 -22 133 -22 -33z"/>
<path d="M2182 733 c22 -21 49 -51 60 -68 10 -16 18 -25 18 -19 0 6 -11 27
-24 47 -13 19 -22 38 -20 41 2 3 1 4 -2 1 -4 -2 -18 5 -32 15 -43 35 -44 22 0
-17z"/>
<path d="M890 743 c1 -20 220 -153 252 -153 24 0 2 20 -39 35 -26 10 -82 42
-125 72 -81 55 -88 58 -88 46z"/>
<path d="M1470 692 c19 -22 43 -51 52 -64 9 -12 17 -18 18 -12 0 18 -57 92
-82 105 -18 10 -16 4 12 -29z"/>
<path d="M2230 722 c0 -6 5 -14 10 -17 6 -4 26 -30 45 -58 39 -57 45 -57 16 1
-20 40 -71 93 -71 74z"/>
<path d="M1220 682 c0 -11 69 -26 78 -18 8 9 1 13 -40 20 -22 4 -38 3 -38 -2z"/>
<path d="M2284 492 c-7 -4 -11 -29 -10 -57 1 -46 3 -50 26 -50 24 0 25 3 25
55 0 55 -13 71 -41 52z m29 -33 c-17 -17 -37 -1 -22 17 8 10 15 12 23 4 7 -7
7 -13 -1 -21z m3 -40 c10 -17 -13 -36 -27 -22 -12 12 -4 33 11 33 5 0 12 -5
16 -11z"/>
<path d="M1496 371 c-33 -36 -11 -100 35 -101 22 0 49 32 49 59 0 44 -57 72
-84 42z m58 -27 c7 -19 -10 -44 -31 -44 -17 0 -27 24 -19 45 7 20 42 19 50 -1z"/>
<path d="M1676 288 c-14 -21 -16 -22 -26 -5 -23 37 -85 2 -78 -44 7 -48 82
-52 94 -4 5 21 9 23 26 14 28 -15 62 15 47 42 -13 26 -43 24 -63 -3z m49 -9
c0 -7 -8 -15 -17 -17 -18 -3 -25 18 -11 32 10 10 28 1 28 -15z m-82 -21 c7
-21 -4 -38 -23 -38 -23 0 -34 16 -26 35 7 18 43 20 49 3z"/>
</g>
</svg>
